<svg width="768" height="1024" viewBox="0 0 768 1024" fill="none" xmlns="http://www.w3.org/2000/svg">
<g opacity="0.14" clip-path="url(#clip0_321_142)">
<path d="M60.2418 402.228V642.944H32.5631V1016.79H0V8.20605H66.7544L62.684 266.405H32.5631V402.228H60.2418Z" fill="#EBD7BF"/>
<path d="M73.4263 -3.89703H105.989V753.216H117.522C121.683 753.216 124.487 747.837 125.934 737.079C127.472 726.321 128.241 703.011 128.241 667.15V-3.89703H160.804V562.257C160.804 648.323 160.216 720.942 159.04 780.112C157.955 839.282 155.784 887.695 152.528 925.349C149.362 962.106 144.929 988.554 139.231 1004.69C133.532 1020.83 126.16 1028.9 117.115 1028.9C108.07 1028.9 100.698 1020.83 94.9994 1004.69C89.3008 988.554 84.8234 962.106 81.5671 925.349C78.4012 888.591 76.2304 840.627 75.0545 781.457C73.969 721.39 73.4263 648.323 73.4263 562.257V-3.89703Z" fill="#EBD7BF"/>
<path d="M232.602 758.595V1016.79H167.476V8.20605H200.039V758.595H232.602Z" fill="#EBD7BF"/>
<path d="M304.4 758.595V1016.79H239.274V8.20605H271.837V758.595H304.4Z" fill="#EBD7BF"/>
<path d="M311.072 999.312L315.685 733.044C325.635 757.251 334.635 769.354 342.686 769.354C346.756 769.354 350.329 768.905 353.404 768.009C356.57 766.216 359.374 763.526 361.816 759.94V679.253L347.163 667.15C340.56 660.874 335.042 650.116 330.61 634.875C326.178 619.634 322.605 599.014 319.891 573.015C317.268 546.12 315.369 514.293 314.193 477.536C313.107 439.882 312.565 395.952 312.565 345.747C312.565 276.715 313.288 219.337 314.736 173.614C316.183 126.995 318.489 89.7896 321.655 61.9974C324.821 33.3087 328.892 13.1369 333.866 1.48212C338.932 -10.1726 345.083 -16 352.319 -16C366.701 -16 379.726 -2.55218 391.395 24.3435L387.324 282.542C377.193 266.405 369.098 258.336 363.038 258.336C356.977 258.336 351.821 261.025 347.57 266.405V345.747L359.238 356.505C366.384 363.677 372.354 375.78 377.148 392.814C381.942 408.952 385.786 430.468 388.681 457.364C391.666 484.26 393.746 516.086 394.922 552.843C396.189 589.601 396.822 631.737 396.822 679.253C396.822 747.389 395.917 804.766 394.108 851.385C392.299 898.005 390.128 933.417 387.596 957.623C385.515 977.347 382.937 993.036 379.862 1004.69C376.786 1015.45 373.53 1023.52 370.093 1028.9C366.656 1034.28 363.173 1037.41 359.646 1038.31C356.208 1040.1 353.088 1041 350.284 1041C343.228 1041 336.444 1037.41 329.932 1030.24C323.419 1023.07 317.133 1012.76 311.072 999.312Z" fill="#EBD7BF"/>
<path d="M483.273 8.20605V266.405H459.665V1016.79H427.102V266.405H403.494V8.20605H483.273Z" fill="#EBD7BF"/>
<path d="M527.936 856.765L524.272 1016.79H489.945L516.267 8.20605H566.604L592.926 1016.79H558.599L554.8 856.765H527.936ZM542.318 317.506H540.554L533.905 599.911H548.83L542.318 317.506Z" fill="#EBD7BF"/>
<path d="M672.051 727.665L674.493 999.312C667.528 1027.1 658.935 1041 648.714 1041C639.036 1041 631.03 1030.69 624.699 1010.07C618.367 988.553 613.347 956.279 609.638 913.245C605.93 870.212 603.307 815.525 601.769 749.182C600.322 682.839 599.598 604.394 599.598 513.845C599.598 425.986 600.276 349.333 601.633 283.887C603.08 217.544 605.613 162.408 609.231 118.478C612.849 73.6522 617.734 40.0326 623.885 17.6196C630.126 -4.79348 637.995 -16 647.493 -16C649.573 -16 651.88 -14.6552 654.413 -11.9657C657.036 -10.1726 659.568 -7.48307 662.011 -3.89702C664.543 -0.310925 666.895 4.17171 669.066 9.55088C671.327 14.0335 673.136 19.4126 674.493 25.6882L669.609 273.128C662.372 257.888 655.905 250.267 650.206 250.267C644.327 250.267 640.257 255.646 637.995 266.405C635.734 277.163 634.603 298.679 634.603 330.954V753.216C636.684 757.699 638.764 761.285 640.845 763.975C643.015 765.768 645.232 766.664 647.493 766.664C656.538 766.664 664.724 753.664 672.051 727.665Z" fill="#EBD7BF"/>
<path d="M714.407 578.394H713.728V1016.79H681.165V8.20605H713.728V419.71H714.407C714.497 403.573 714.678 389.228 714.949 376.677C715.221 363.229 715.582 351.574 716.035 341.712L731.909 8.20605H767.186L742.764 503.086L768 1016.79H732.723L716.035 655.047C715.582 645.185 715.221 633.979 714.949 621.427C714.678 608.876 714.497 594.532 714.407 578.394Z" fill="#EBD7BF"/>
</g>
<defs>
<clipPath id="clip0_321_142">
<rect width="768" height="1024" fill="white"/>
</clipPath>
</defs>
</svg>
