<svg width="1382" height="1057" viewBox="0 0 1382 1057" fill="none" xmlns="http://www.w3.org/2000/svg">
<g opacity="0.14">
<path d="M108.695 418.228V658.944H58.913V1032.79H0.345703V24.2061H120.409L113.088 282.405H58.913V418.228H108.695Z" fill="#EBD7BF"/>
<path d="M132.409 12.103H190.976V769.216H211.719C219.202 769.216 224.246 763.837 226.849 753.079C229.614 742.321 230.997 719.011 230.997 683.15V12.103H289.564V578.257C289.564 664.323 288.507 736.942 286.392 796.112C284.44 855.282 280.535 903.695 274.678 941.349C268.984 978.106 261.013 1004.55 250.763 1020.69C240.514 1036.83 227.255 1044.9 210.987 1044.9C194.718 1044.9 181.459 1036.83 171.21 1020.69C160.96 1004.55 152.907 978.106 147.051 941.349C141.356 904.591 137.452 856.627 135.337 797.457C133.385 737.39 132.409 664.323 132.409 578.257V12.103Z" fill="#EBD7BF"/>
<path d="M418.699 774.595V1032.79H301.564V24.2061H360.132V774.595H418.699Z" fill="#EBD7BF"/>
<path d="M547.834 774.595V1032.79H430.699V24.2061H489.266V774.595H547.834Z" fill="#EBD7BF"/>
<path d="M559.834 1015.31L568.131 749.044C586.026 773.251 602.214 785.354 616.693 785.354C624.014 785.354 630.44 784.905 635.971 784.009C641.665 782.216 646.708 779.526 651.101 775.94V695.253L624.746 683.15C612.87 676.874 602.946 666.116 594.974 650.875C587.002 635.634 580.576 615.014 575.696 589.015C570.978 562.12 567.561 530.293 565.446 493.536C563.494 455.882 562.518 411.952 562.518 361.747C562.518 292.715 563.819 235.337 566.422 189.614C569.025 142.995 573.174 105.79 578.868 77.9974C584.562 49.3087 591.883 29.1369 600.831 17.4821C609.941 5.82737 621.004 0 634.019 0C659.886 0 683.313 13.4478 704.3 40.3435L696.979 298.542C678.758 282.405 664.197 274.336 653.297 274.336C642.397 274.336 633.124 277.025 625.478 282.405V361.747L646.464 372.505C659.317 379.677 670.054 391.78 678.676 408.814C687.299 424.952 694.213 446.468 699.419 473.364C704.788 500.26 708.53 532.086 710.644 568.843C712.922 605.601 714.061 647.737 714.061 695.253C714.061 763.389 712.434 820.766 709.18 867.385C705.927 914.005 702.022 949.417 697.467 973.623C693.725 993.347 689.088 1009.04 683.557 1020.69C678.026 1031.45 672.169 1039.52 665.987 1044.9C659.805 1050.28 653.541 1053.41 647.197 1054.31C641.014 1056.1 635.402 1057 630.358 1057C617.669 1057 605.467 1053.41 593.754 1046.24C582.04 1039.07 570.734 1028.76 559.834 1015.31Z" fill="#EBD7BF"/>
<path d="M869.551 24.2061V282.405H827.09V1032.79H768.522V282.405H726.061V24.2061H869.551Z" fill="#EBD7BF"/>
<path d="M949.879 872.765L943.291 1032.79H881.551L928.893 24.2061H1019.43L1066.77 1032.79H1005.03L998.197 872.765H949.879ZM975.747 333.506H972.574L960.617 615.911H987.46L975.747 333.506Z" fill="#EBD7BF"/>
<path d="M1209.08 743.665L1213.47 1015.31C1200.95 1043.1 1185.49 1057 1167.11 1057C1149.7 1057 1135.3 1046.69 1123.92 1026.07C1112.53 1004.55 1103.5 972.279 1096.83 929.245C1090.16 886.212 1085.44 831.525 1082.67 765.182C1080.07 698.839 1078.77 620.394 1078.77 529.845C1078.77 441.986 1079.99 365.333 1082.43 299.887C1085.03 233.544 1089.59 178.408 1096.1 134.478C1102.6 89.6522 1111.39 56.0326 1122.45 33.6196C1133.68 11.2065 1147.83 0 1164.91 0C1168.65 0 1172.8 1.34477 1177.36 4.0343C1182.08 5.82737 1186.63 8.51693 1191.02 12.103C1195.58 15.6891 1199.81 20.1717 1203.71 25.5509C1207.78 30.0335 1211.03 35.4126 1213.47 41.6882L1204.69 289.128C1191.67 273.888 1180.04 266.267 1169.79 266.267C1159.22 266.267 1151.9 271.646 1147.83 282.405C1143.76 293.163 1141.73 314.679 1141.73 346.954V769.216C1145.47 773.699 1149.21 777.285 1152.96 779.975C1156.86 781.768 1160.85 782.664 1164.91 782.664C1181.18 782.664 1195.9 769.664 1209.08 743.665Z" fill="#EBD7BF"/>
<path d="M1285.26 594.394H1284.04V1032.79H1225.47V24.2061H1284.04V435.71H1285.26C1285.42 419.573 1285.75 405.228 1286.24 392.677C1286.73 379.229 1287.38 367.574 1288.19 357.712L1316.74 24.2061H1380.19L1336.26 519.086L1381.65 1032.79H1318.21L1288.19 671.047C1287.38 661.185 1286.73 649.979 1286.24 637.427C1285.75 624.876 1285.42 610.532 1285.26 594.394Z" fill="#EBD7BF"/>
</g>
</svg>
