<svg width="375" height="600" viewBox="0 0 375 600" fill="none" xmlns="http://www.w3.org/2000/svg">
<g opacity="0.14">
<path d="M29.4149 237.405V374.046H15.9V586.26H0V13.7404H32.5949L30.6074 160.305H15.9V237.405H29.4149Z" fill="#EBD7BF"/>
<path d="M35.8527 6.87018H51.7526V436.641H57.3839C59.4155 436.641 60.7847 433.588 61.4914 427.481C62.2422 421.374 62.6176 408.142 62.6176 387.786V6.87018H78.5176V328.244C78.5176 377.099 78.2305 418.321 77.6563 451.908C77.1263 485.496 76.0663 512.977 74.4763 534.351C72.9305 555.216 70.7663 570.229 67.9838 579.389C65.2014 588.55 61.6018 593.13 57.1851 593.13C52.7685 593.13 49.1689 588.55 46.3864 579.389C43.6039 570.229 41.4177 555.216 39.8277 534.351C38.2819 513.486 37.2219 486.26 36.6477 452.672C36.1177 418.575 35.8527 377.099 35.8527 328.244V6.87018Z" fill="#EBD7BF"/>
<path d="M113.575 439.695V586.26H81.7754V13.7404H97.6753V439.695H113.575Z" fill="#EBD7BF"/>
<path d="M148.633 439.695V586.26H116.833V13.7404H132.733V439.695H148.633Z" fill="#EBD7BF"/>
<path d="M151.891 576.336L154.143 425.191C159.002 438.931 163.396 445.802 167.327 445.802C169.314 445.802 171.059 445.547 172.561 445.038C174.107 444.02 175.476 442.494 176.668 440.458V394.656L169.513 387.786C166.289 384.224 163.595 378.117 161.431 369.466C159.267 360.814 157.522 349.109 156.197 334.351C154.916 319.084 153.989 301.018 153.414 280.153C152.884 258.779 152.619 233.842 152.619 205.344C152.619 166.158 152.973 133.588 153.679 107.634C154.386 81.1705 155.512 60.0509 157.058 44.2748C158.604 27.9898 160.592 16.5394 163.021 9.92363C165.494 3.30788 168.497 0 172.031 0C179.053 0 185.413 7.63358 191.111 22.9007L189.123 169.466C184.176 160.305 180.224 155.725 177.264 155.725C174.305 155.725 171.788 157.252 169.712 160.305V205.344L175.409 211.45C178.899 215.522 181.814 222.392 184.154 232.061C186.495 241.221 188.372 253.435 189.786 268.702C191.243 283.969 192.259 302.036 192.833 322.901C193.451 343.766 193.761 367.684 193.761 394.656C193.761 433.333 193.319 465.903 192.436 492.366C191.552 518.83 190.492 538.931 189.256 552.672C188.24 563.868 186.981 572.774 185.479 579.389C183.978 585.496 182.388 590.076 180.709 593.13C179.031 596.183 177.331 597.964 175.608 598.473C173.93 599.491 172.406 600 171.037 600C167.592 600 164.279 597.964 161.099 593.893C157.919 589.822 154.85 583.969 151.891 576.336Z" fill="#EBD7BF"/>
<path d="M235.973 13.7404V160.305H224.446V586.26H208.546V160.305H197.018V13.7404H235.973Z" fill="#EBD7BF"/>
<path d="M257.781 495.42L255.992 586.26H239.231L252.084 13.7404H276.662L289.515 586.26H272.753L270.899 495.42H257.781ZM264.804 189.313H263.942L260.696 349.618H267.984L264.804 189.313Z" fill="#EBD7BF"/>
<path d="M328.15 422.137L329.342 576.336C325.942 592.112 321.746 600 316.755 600C312.029 600 308.12 594.148 305.029 582.443C301.937 570.229 299.486 551.908 297.675 527.481C295.864 503.053 294.583 472.01 293.832 434.351C293.126 396.692 292.772 352.163 292.772 300.763C292.772 250.891 293.104 207.379 293.766 170.229C294.473 132.57 295.71 101.272 297.476 76.3359C299.243 50.8906 301.628 31.8066 304.631 19.084C307.679 6.36132 311.521 0 316.159 0C317.174 0 318.301 0.763349 319.537 2.29005C320.818 3.30788 322.055 4.83459 323.247 6.87019C324.484 8.90581 325.632 11.4504 326.692 14.5038C327.797 17.0483 328.68 20.1018 329.342 23.6641L326.957 164.122C323.424 155.471 320.266 151.145 317.484 151.145C314.613 151.145 312.625 154.198 311.521 160.305C310.417 166.412 309.865 178.626 309.865 196.947V436.641C310.881 439.186 311.897 441.221 312.912 442.748C313.972 443.766 315.054 444.275 316.159 444.275C320.575 444.275 324.572 436.896 328.15 422.137Z" fill="#EBD7BF"/>
<path d="M348.831 337.405H348.5V586.26H332.6V13.7404H348.5V247.328H348.831C348.876 238.168 348.964 230.025 349.096 222.901C349.229 215.267 349.406 208.651 349.626 203.053L357.378 13.7404H374.603L362.678 294.656L375 586.26H357.775L349.626 380.916C349.406 375.318 349.229 368.957 349.096 361.832C348.964 354.707 348.876 346.565 348.831 337.405Z" fill="#EBD7BF"/>
</g>
</svg>
